<svg width="22" height="8" viewBox="0 0 22 8" fill="none" xmlns="http://www.w3.org/2000/svg">
<path d="M18.1221 3.77301C17.4525 3.49663 17.1482 3.25712 17.1482 2.85022V2.71187C17.1482 2.18162 16.8029 1.83998 16.0522 1.49833C14.8952 0.96776 12.9474 0.64798 11.0406 0.64798H10.9595C9.09278 0.64798 7.20602 0.953076 6.02895 1.46211C5.23726 1.81061 4.85189 2.16693 4.85189 2.71187V2.85022C4.85189 3.25712 4.56765 3.49663 3.87799 3.77301C3.37054 3.97663 3.20837 4.23832 3.20837 4.52156C3.20837 4.80512 3.47166 5.07367 4.00007 5.29197C4.68972 5.55366 5.66363 5.72073 6.65848 5.74977C8.09883 5.80786 9.53919 5.82972 11.0005 5.82972C12.4609 5.82972 13.9012 5.79317 15.3425 5.74977C16.3365 5.72073 17.3104 5.55366 18 5.29197C18.5275 5.07367 18.7917 4.80512 18.7917 4.52156C18.7917 4.23832 18.6295 3.97663 18.1221 3.77301Z" fill="white"/>
<path opacity="0.4" d="M12.8414 6.22986C12.3831 6.19527 9.59077 6.19527 9.13252 6.22986C8.74077 6.26184 8.31714 6.33624 8.31714 6.49939C8.33991 6.65504 8.59774 6.79241 8.95487 6.87953L8.95396 6.87986C9.41585 7.00712 9.95792 7.08804 10.5255 7.11708C10.828 7.13177 11.1359 7.13112 11.4493 7.11708C12.016 7.08804 12.558 7.00712 13.0199 6.87986L13.019 6.87953C13.3761 6.79241 13.634 6.65504 13.6567 6.49939C13.6567 6.33624 13.2331 6.26184 12.8414 6.22986Z" fill="white"/>
</svg>
