<svg width="16" height="27" viewBox="0 0 16 27" fill="none" xmlns="http://www.w3.org/2000/svg">
<path fill-rule="evenodd" clip-rule="evenodd" d="M8 20.0625C8.18933 20.0625 8.45467 20.1491 8.784 20.3126C9.17208 20.5133 9.5441 20.7382 9.89733 20.9858C10.716 21.5436 11.6533 22.2901 12.5413 23.0367C13.6622 23.983 14.7537 24.9571 15.8146 25.958L15.868 26.0072L15.8853 26.0241C15.8945 26.0328 15.9064 26.0389 15.9195 26.0415C15.9326 26.044 15.9462 26.043 15.9586 26.0385C15.9708 26.034 15.9812 26.0263 15.9886 26.0165C15.9959 26.0066 15.9999 25.9951 16 25.9832V4.93088C16.0017 4.54636 15.9192 4.16531 15.7571 3.80963C15.5951 3.45395 15.3566 3.13066 15.0556 2.85831C14.7545 2.58596 14.3967 2.36993 14.0028 2.22264C13.6088 2.07534 13.1865 1.99968 12.76 2H3.24002C2.81354 1.99968 2.39119 2.07534 1.99724 2.22264C1.60329 2.36993 1.2455 2.58596 0.944431 2.85831C0.64336 3.13066 0.404941 3.45395 0.24287 3.80963C0.0807991 4.16531 -0.00172997 4.54636 2.76566e-05 4.93088V25.9832C0.000462532 25.9949 0.00465202 26.0062 0.0120869 26.0157C0.0195217 26.0253 0.0298805 26.0327 0.0418978 26.037C0.0539141 26.0413 0.0670691 26.0424 0.0797596 26.0401C0.0924492 26.0378 0.104123 26.0322 0.113359 26.0241H0.114695L0.132029 26.0072L0.18536 25.958C1.24827 24.9588 2.33974 23.9848 3.45868 23.0367C4.34668 22.2901 5.28534 21.5436 6.10267 20.9846C6.4559 20.737 6.82792 20.5121 7.216 20.3114C7.54533 20.1491 7.81067 20.0625 8 20.0625Z" fill="white"/>
<path fill-rule="evenodd" clip-rule="evenodd" d="M8 18.0625C8.18933 18.0625 8.45467 18.1491 8.784 18.3126C9.17208 18.5133 9.5441 18.7382 9.89733 18.9858C10.716 19.5436 11.6533 20.2901 12.5413 21.0367C13.6622 21.983 14.7537 22.9571 15.8146 23.958L15.868 24.0072L15.8853 24.0241C15.8945 24.0328 15.9064 24.0389 15.9195 24.0415C15.9326 24.044 15.9462 24.043 15.9586 24.0385C15.9708 24.034 15.9812 24.0263 15.9886 24.0165C15.9959 24.0066 15.9999 23.9951 16 23.9832V2.93088C16.0017 2.54636 15.9192 2.16531 15.7571 1.80963C15.5951 1.45395 15.3566 1.13066 15.0556 0.858308C14.7545 0.585961 14.3967 0.369934 14.0028 0.222638C13.6088 0.0753422 13.1865 -0.000318994 12.76 1.01085e-06H3.24002C2.81354 -0.000318994 2.39119 0.0753422 1.99724 0.222638C1.60329 0.369934 1.2455 0.585961 0.944431 0.858308C0.64336 1.13066 0.404941 1.45395 0.24287 1.80963C0.0807991 2.16531 -0.00172997 2.54636 2.76566e-05 2.93088V23.9832C0.000462532 23.9949 0.00465202 24.0062 0.0120869 24.0157C0.0195217 24.0253 0.0298805 24.0327 0.0418978 24.037C0.0539141 24.0413 0.0670691 24.0424 0.0797596 24.0401C0.0924492 24.0378 0.104123 24.0322 0.113359 24.0241H0.114695L0.132029 24.0072L0.18536 23.958C1.24827 22.9588 2.33974 21.9848 3.45868 21.0367C4.34668 20.2901 5.28534 19.5436 6.10267 18.9846C6.4559 18.737 6.82792 18.5121 7.216 18.3114C7.54533 18.1491 7.81067 18.0625 8 18.0625Z" fill="white"/>
</svg>
