<svg width="37" height="38" viewBox="0 0 37 38" fill="none" xmlns="http://www.w3.org/2000/svg">
<path d="M32.2814 36.2423H4.41191C2.95208 36.2423 1.75768 35.0009 1.75768 33.4836V25.4659C1.75768 25.0348 1.75768 24.8107 1.95674 24.3969C2.58712 22.8795 4.44509 21.6036 7.34816 20.5173C9.42178 24.621 13.569 27.4143 18.3301 27.4143C23.0911 27.4143 27.2549 24.621 29.3119 20.5173C32.215 21.5864 34.0896 22.8968 34.7034 24.3969C34.9024 24.6038 34.9024 25.0521 34.9024 25.4659V33.4836C34.9024 35.0009 33.708 36.2423 32.2482 36.2423H32.2814Z" stroke="#979797" stroke-width="3.5" stroke-linecap="round" stroke-linejoin="round"/>
<path d="M18.3467 21.5864C13.7847 21.5864 10.0522 17.7068 10.0522 12.9652V10.3788C10.0522 5.6372 13.7847 1.75768 18.3467 1.75768C22.9086 1.75768 26.6412 5.6372 26.6412 10.3788V12.9652C26.6412 17.7068 22.9086 21.5864 18.3467 21.5864Z" stroke="#979797" stroke-width="3.5" stroke-linecap="round" stroke-linejoin="round"/>
</svg>
