<svg width="36" height="35" viewBox="0 0 36 35" fill="none" xmlns="http://www.w3.org/2000/svg">
<path d="M28.6665 22.1591L33.9998 17.1193L28.6665 12.0795" stroke="white" stroke-width="4" stroke-linecap="round" stroke-linejoin="round"/>
<path d="M34 17.1194H9.11111M21.5556 23.8391V28.2069C21.5556 28.7364 21.4452 29.2607 21.2308 29.7498C21.0164 30.239 20.7021 30.6834 20.3059 31.0578C19.9097 31.4322 19.4393 31.7292 18.9217 31.9318C18.404 32.1344 17.8492 32.2387 17.2889 32.2387H6.26667C5.13508 32.2387 4.04983 31.8139 3.24968 31.0578C2.44952 30.3017 2 29.2762 2 28.2069V6.03183C2 4.96252 2.44952 3.93701 3.24968 3.1809C4.04983 2.42478 5.13508 2 6.26667 2H17.2889C17.8492 2 18.404 2.10429 18.9217 2.3069C19.4393 2.50952 19.9097 2.80651 20.3059 3.1809C20.7021 3.55529 21.0164 3.99975 21.2308 4.48892C21.4452 4.97808 21.5556 5.50236 21.5556 6.03183V10.3996" stroke="white" stroke-width="4" stroke-miterlimit="10" stroke-linecap="round"/>
</svg>
