<svg width="16" height="16" viewBox="0 0 16 16" fill="none" xmlns="http://www.w3.org/2000/svg">
<path fill-rule="evenodd" clip-rule="evenodd" d="M2.66667 6.61531C2.66667 3.70265 5.05933 1.33331 8 1.33331C10.9407 1.33331 13.3333 3.70265 13.3333 6.61531C13.3333 10.2646 8.634 14.3346 8.434 14.506C8.30867 14.6133 8.15467 14.6666 8 14.6666C7.84533 14.6666 7.69133 14.6133 7.566 14.506C7.366 14.3346 2.66667 10.2646 2.66667 6.61531ZM8 8.66665C6.71333 8.66665 5.66667 7.61998 5.66667 6.33331C5.66667 5.04665 6.71333 3.99998 8 3.99998C9.28667 3.99998 10.3333 5.04665 10.3333 6.33331C10.3333 7.61998 9.28667 8.66665 8 8.66665ZM8 5.33331C7.44867 5.33331 7 5.78198 7 6.33331C7 6.88465 7.44867 7.33331 8 7.33331C8.55133 7.33331 9 6.88465 9 6.33331C9 5.78198 8.55133 5.33331 8 5.33331Z" fill="#0D1C2E"/>
<mask id="mask0_2_282" style="mask-type:luminance" maskUnits="userSpaceOnUse" x="2" y="1" width="12" height="14">
<path fill-rule="evenodd" clip-rule="evenodd" d="M2.66667 6.61531C2.66667 3.70265 5.05933 1.33331 8 1.33331C10.9407 1.33331 13.3333 3.70265 13.3333 6.61531C13.3333 10.2646 8.634 14.3346 8.434 14.506C8.30867 14.6133 8.15467 14.6666 8 14.6666C7.84533 14.6666 7.69133 14.6133 7.566 14.506C7.366 14.3346 2.66667 10.2646 2.66667 6.61531ZM8 8.66665C6.71333 8.66665 5.66667 7.61998 5.66667 6.33331C5.66667 5.04665 6.71333 3.99998 8 3.99998C9.28667 3.99998 10.3333 5.04665 10.3333 6.33331C10.3333 7.61998 9.28667 8.66665 8 8.66665ZM8 5.33331C7.44867 5.33331 7 5.78198 7 6.33331C7 6.88465 7.44867 7.33331 8 7.33331C8.55133 7.33331 9 6.88465 9 6.33331C9 5.78198 8.55133 5.33331 8 5.33331Z" fill="white"/>
</mask>
<g mask="url(#mask0_2_282)">
</g>
</svg>
