<svg width="351" height="276" viewBox="0 0 351 276" fill="none" xmlns="http://www.w3.org/2000/svg">
<path d="M30.4 276C19.759 276 14.4385 276 10.3742 273.929C6.7991 272.108 3.89247 269.201 2.07088 265.626C0 261.561 0 256.241 0 245.6L0 30.4C0 19.759 0 14.4385 2.07088 10.3742C3.89247 6.7991 6.7991 3.89246 10.3742 2.07086C14.4385 0 19.759 0 30.4 0L320.6 0C331.241 0 336.561 0 340.626 2.07086C344.201 3.89246 347.108 6.7991 348.929 10.3742C351 14.4385 351 19.759 351 30.4L351 245.6C351 256.241 351 261.561 348.929 265.626C347.108 269.201 344.201 272.108 340.626 273.929C336.561 276 331.241 276 320.6 276L30.4 276Z" fill="white"/>
</svg>
