<svg width="41" height="41" viewBox="0 0 41 41" fill="none" xmlns="http://www.w3.org/2000/svg">
<path d="M34.0667 5.30396H6.93333C5.62493 5.30396 4.37012 5.72167 3.44494 6.4652C2.51976 7.20874 2 8.21719 2 9.2687V34.3788C2 35.4303 2.51976 36.4387 3.44494 37.1823C4.37012 37.9258 5.62493 38.3435 6.93333 38.3435H34.0667C35.3751 38.3435 36.6299 37.9258 37.5551 37.1823C38.4802 36.4387 39 35.4303 39 34.3788V9.2687C39 8.21719 38.4802 7.20874 37.5551 6.4652C36.6299 5.72167 35.3751 5.30396 34.0667 5.30396Z" stroke="white" stroke-width="4" stroke-miterlimit="10"/>
<path d="M10.2222 23.4757H30.7777M10.2222 18.5198H30.7777M10.2222 28.4316H22.5555M28.7222 5.30395V8.9383C28.7222 9.28881 28.5489 9.62496 28.2405 9.8728C27.9321 10.1206 27.5139 10.2599 27.0777 10.2599H13.9222C13.486 10.2599 13.0678 10.1206 12.7594 9.8728C12.451 9.62496 12.2777 9.28881 12.2777 8.9383V5.30395M24.6111 5.30395C24.6111 4.42769 24.1779 3.58732 23.4069 2.96771C22.636 2.34809 21.5903 2 20.4999 2C19.4096 2 18.3639 2.34809 17.593 2.96771C16.822 3.58732 16.3888 4.42769 16.3888 5.30395" stroke="white" stroke-width="4" stroke-miterlimit="10" stroke-linecap="round"/>
</svg>
